<?xml version="1.0" encoding="utf-8"?>
<!-- Generator: Adobe Illustrator 18.0.0, SVG Export Plug-In . SVG Version: 6.00 Build 0)  -->
<!DOCTYPE svg PUBLIC "-//W3C//DTD SVG 1.1//EN" "http://www.w3.org/Graphics/SVG/1.1/DTD/svg11.dtd">
<svg version="1.1" id="Layer_1" xmlns="http://www.w3.org/2000/svg" xmlns:xlink="http://www.w3.org/1999/xlink" x="0px" y="0px"
	 width="980px" height="980px" viewBox="0 0 1400 980" enable-background="new 0 0 1400 980" xml:space="preserve">
<g>
	
	<path fill="#231F20" d="M264.9,810.4c0,0,17.2-14.2,26.2-46.4c8.9-32.1,4.6-67.6,4.6-67.6c4.3-0.3,19.9-6,19.9-6s4.6,1,7.3,4.6
		c2.7,3.6,4.6,20.5,6.6,25.8c2,5.3,4.6,10.6,4.6,11.6c0,1-6.6,12.9-8.6,17.2c-2,4.3-12.9,14.2-12.9,14.2s9.9-3,14.6-6.3
		c4.6-3.3,12.3-15.9,14.6-23.5c2.3-7.6,0.3-15.9-5-24.9c-5.3-8.9-14.2-25.8-18.6-26.8c-4.3-1-22.5,2.3-22.5,2.3
		c0-8.9-1.3-25.5-1.3-25.5c3.3-0.3,11.6-8,15.7-7.6c4.1,0.3,15.1,9.3,19.7,13.6c4.6,4.3,3.6,7.3,7.3,7c3.6-0.3,7-6,13.6-6
		c6.6,0,10.9,6,10.9,6s0.7-4-7-7.6c-7.6-3.6-16.6,0-16.6,0c-2.7-4.3-21.9-18.9-30.8-19.9s-15.6,3.3-15.6,3.3s1.3-2.7-1.8-11.9
		c-3.1-9.3-9.8-22.2-9.8-22.2c8.9-3.6,25.5-14.9,31.5-19.2c6-4.3,9.6-9.6,9.6-12.9c0-3.3-5-28.5-10.9-34.1c-6-5.6-11.3-4.3-11.3-4.3
		c12.3,7.3,16.9,37.8,16.9,37.8c-3,1.3-8.6,5.6-8.6,5.6c-18.2,1.3-36.1,9.6-36.1,9.6c-3.3-3.3-12.6-3.3-12.6-3.3s-9.3,0-12.6,3.3
		c0,0-17.9-8.3-36.1-9.6c0,0-5.6-4.3-8.6-5.6c0,0,4.6-30.5,16.9-37.8c0,0-5.3-1.3-11.3,4.3c-6,5.6-10.9,30.8-10.9,34.1
		c0,3.3,3.6,8.6,9.6,12.9c6,4.3,22.5,15.6,31.5,19.2c0,0-6.6,12.9-9.8,22.2c-3.1,9.3-1.8,11.9-1.8,11.9s-6.6-4.3-15.6-3.3
		s-28.2,15.6-30.8,19.9c0,0-8.9-3.6-16.6,0c-7.6,3.6-7,7.6-7,7.6s4.3-6,10.9-6c6.6,0,9.9,5.6,13.6,6c3.6,0.3,2.7-2.7,7.3-7
		c4.6-4.3,15.6-13.3,19.7-13.6c4.1-0.3,12.4,7.3,15.7,7.6c0,0-1.3,16.6-1.3,25.5c0,0-18.2-3.3-22.5-2.3c-4.3,1-13.3,17.9-18.6,26.8
		c-5.3,8.9-7.3,17.2-5,24.9s9.9,20.2,14.6,23.5c4.6,3.3,14.6,6.3,14.6,6.3s-10.9-9.9-12.9-14.2c-2-4.3-8.6-16.2-8.6-17.2
		c0-1,2.7-6.3,4.6-11.6c2-5.3,4-22.2,6.6-25.8c2.7-3.6,7.3-4.6,7.3-4.6s15.6,5.6,19.9,6c0,0-4.3,35.5,4.6,67.6
		c8.9,32.1,26.2,46.4,26.2,46.4s3.6,13.9,6.3,17.6C261.2,824.3,264.9,810.4,264.9,810.4z"/>

</g>
</svg>
